<svg t="1756798547110" class="icon" viewBox="0 0 1024 1024" version="1.1" xmlns="http://www.w3.org/2000/svg" p-id="28015" width="24" height="24"><path d="M522.24 437.76V614.4h289.28c-12.8 74.24-87.04 220.16-289.28 220.16C348.16 834.56 204.8 691.2 204.8 512s143.36-322.56 317.44-322.56c99.84 0 166.4 43.52 204.8 79.36l138.24-133.12C775.68 51.2 660.48 0 522.24 0c-284.16 0-512 230.4-512 512s227.84 512 512 512c294.4 0 491.52-207.36 491.52-501.76 0-33.28-2.56-58.88-7.68-84.48H522.24z" fill="#2CA94F" p-id="28016"></path><path d="M872.96 890.88c89.6-89.6 140.8-217.6 140.8-366.08 0-33.28-2.56-58.88-7.68-84.48H522.24V614.4h289.28c-7.68 43.52-35.84 112.64-97.28 161.28l158.72 115.2z" fill="#3E82F7" p-id="28017"></path><path d="M71.68 755.2C33.28 683.52 10.24 601.6 10.24 512c0-76.8 15.36-148.48 46.08-212.48l163.84 115.2c-10.24 30.72-15.36 64-15.36 97.28 0 43.52 7.68 87.04 25.6 125.44L71.68 755.2z" fill="#FCBD00" p-id="28018"></path><path d="M56.32 299.52C135.68 122.88 314.88 0 522.24 0c138.24 0 253.44 51.2 343.04 133.12L727.04 266.24c-38.4-35.84-104.96-79.36-204.8-79.36-143.36 0-266.24 99.84-304.64 235.52L56.32 299.52z" fill="#ED422C" p-id="28019"></path></svg>