<?xml version="1.0" standalone="no"?><!DOCTYPE svg PUBLIC "-//W3C//DTD SVG 1.1//EN" "http://www.w3.org/Graphics/SVG/1.1/DTD/svg11.dtd"><svg t="1756891968141" class="icon" viewBox="0 0 1024 1024" version="1.1" xmlns="http://www.w3.org/2000/svg" p-id="6890" xmlns:xlink="http://www.w3.org/1999/xlink" width="24" height="24"><path d="M998.4 896L832 723.2c128-179.2 115.2-428.8-44.8-588.8C608-44.8 320-44.8 134.4 134.4c-179.2 179.2-179.2 467.2 0 652.8 160 160 416 179.2 588.8 44.8l166.4 166.4c32 32 76.8 32 108.8 0 32-25.6 32-76.8 0-102.4zM243.2 672c-121.6-121.6-121.6-313.6 0-435.2s313.6-121.6 435.2 0 121.6 313.6 0 435.2-313.6 121.6-435.2 0z" fill="#000000" p-id="6891"></path></svg>